<svg width="22" height="22" viewBox="0 0 22 22" fill="none" xmlns="http://www.w3.org/2000/svg">
<path d="M18.2444 7.8705C18.201 7.77101 18.1401 7.68006 18.0648 7.60191L12.5648 2.10191C12.4866 2.02655 12.3957 1.96571 12.2962 1.92224C12.2687 1.90941 12.2394 1.90208 12.21 1.89199C12.1333 1.86589 12.0535 1.85017 11.9726 1.84524C11.9534 1.84341 11.9359 1.83333 11.9167 1.83333H5.50002C4.48894 1.83333 3.66669 2.65558 3.66669 3.66666V18.3333C3.66669 19.3444 4.48894 20.1667 5.50002 20.1667H16.5C17.5111 20.1667 18.3334 19.3444 18.3334 18.3333V8.25C18.3334 8.23074 18.3233 8.21333 18.3214 8.19316C18.317 8.11224 18.3012 8.03233 18.2747 7.95574C18.2655 7.92641 18.2573 7.898 18.2444 7.8705ZM15.2039 7.33333H12.8334V4.96283L15.2039 7.33333ZM5.50002 18.3333V3.66666H11V8.25C11 8.49311 11.0966 8.72627 11.2685 8.89818C11.4404 9.07008 11.6736 9.16666 11.9167 9.16666H16.5L16.5019 18.3333H5.50002Z" fill="white"/>
<path d="M7.33331 11H14.6666V12.8333H7.33331V11ZM7.33331 14.6667H14.6666V16.5H7.33331V14.6667ZM7.33331 7.33333H9.16665V9.16666H7.33331V7.33333Z" fill="white"/>
</svg>
