<svg width="22" height="23" viewBox="0 0 22 23" fill="none" xmlns="http://www.w3.org/2000/svg">
<path d="M19.2014 8.11291C19.1922 7.41865 19.0622 6.73129 18.8173 6.08157C18.605 5.53355 18.2807 5.03584 17.8651 4.62025C17.4495 4.20467 16.9518 3.88034 16.4038 3.66799C15.7624 3.42724 15.0848 3.29705 14.3999 3.28299C13.5181 3.24357 13.2385 3.23257 11 3.23257C8.7615 3.23257 8.47459 3.23257 7.59917 3.28299C6.91457 3.29716 6.23732 3.42734 5.59625 3.66799C5.04814 3.88019 4.55036 4.20447 4.13475 4.62007C3.71914 5.03568 3.39487 5.53346 3.18267 6.08157C2.94143 6.72245 2.81153 7.39984 2.79859 8.08449C2.75917 8.96724 2.74725 9.24682 2.74725 11.4853C2.74725 13.7238 2.74725 14.0098 2.79859 14.8862C2.81234 15.5718 2.94159 16.2483 3.18267 16.8909C3.39522 17.4389 3.71974 17.9364 4.13549 18.3519C4.55123 18.7673 5.04906 19.0914 5.59717 19.3036C6.23648 19.554 6.91384 19.6935 7.60009 19.7161C8.48284 19.7555 8.76242 19.7674 11.0009 19.7674C13.2394 19.7674 13.5263 19.7674 14.4018 19.7161C15.0866 19.7026 15.7642 19.5727 16.4056 19.332C16.9535 19.1194 17.4511 18.795 17.8666 18.3794C18.2822 17.9639 18.6066 17.4663 18.8192 16.9184C19.0603 16.2767 19.1895 15.6002 19.2033 14.9137C19.2427 14.0318 19.2546 13.7522 19.2546 11.5128C19.2528 9.27432 19.2528 8.99016 19.2014 8.11291ZM10.9945 15.7185C8.65334 15.7185 6.75675 13.8219 6.75675 11.4807C6.75675 9.13957 8.65334 7.24299 10.9945 7.24299C12.1184 7.24299 13.1963 7.68947 13.991 8.4842C14.7858 9.27893 15.2323 10.3568 15.2323 11.4807C15.2323 12.6047 14.7858 13.6825 13.991 14.4773C13.1963 15.272 12.1184 15.7185 10.9945 15.7185ZM15.4009 8.07441C15.2711 8.07453 15.1426 8.04905 15.0226 7.99943C14.9027 7.94982 14.7937 7.87703 14.7019 7.78525C14.6101 7.69347 14.5373 7.58448 14.4877 7.46454C14.4381 7.34459 14.4126 7.21604 14.4128 7.08624C14.4128 6.95653 14.4383 6.8281 14.4879 6.70826C14.5376 6.58843 14.6103 6.47954 14.702 6.38783C14.7938 6.29611 14.9026 6.22335 15.0225 6.17372C15.1423 6.12408 15.2708 6.09853 15.4005 6.09853C15.5302 6.09853 15.6586 6.12408 15.7784 6.17372C15.8983 6.22335 16.0072 6.29611 16.0989 6.38783C16.1906 6.47954 16.2633 6.58843 16.313 6.70826C16.3626 6.8281 16.3882 6.95653 16.3882 7.08624C16.3882 7.63257 15.9463 8.07441 15.4009 8.07441Z" fill="white"/>
<path d="M10.9945 14.2335C12.5148 14.2335 13.7473 13.001 13.7473 11.4807C13.7473 9.96045 12.5148 8.728 10.9945 8.728C9.47421 8.728 8.24176 9.96045 8.24176 11.4807C8.24176 13.001 9.47421 14.2335 10.9945 14.2335Z" fill="white"/>
</svg>
