<svg width="22" height="22" viewBox="0 0 22 22" fill="none" xmlns="http://www.w3.org/2000/svg">
<path d="M11.0394 6.34816C9.82923 6.34937 8.66895 6.83059 7.81313 7.68623C6.95732 8.54187 6.47587 9.70206 6.47441 10.9122C6.4735 11.7739 6.7155 12.6136 7.172 13.3405L7.28016 13.5128L6.81908 15.1967L8.547 14.7439L8.71291 14.8429C9.41647 15.2593 10.2191 15.4787 11.0367 15.4782H11.0376C12.2474 15.4765 13.4071 14.9952 14.2627 14.1398C15.1182 13.2845 15.5997 12.1248 15.6017 10.915C15.6038 10.3153 15.4869 9.72121 15.2578 9.16703C15.0287 8.61285 14.6919 8.10963 14.267 7.68649C13.8443 7.26102 13.3413 6.92365 12.7873 6.69392C12.2333 6.46419 11.6392 6.34666 11.0394 6.34816ZM13.7234 12.873C13.6088 13.1938 13.0607 13.4853 12.7976 13.5247C12.5092 13.5745 12.2131 13.5559 11.9332 13.4707C11.6676 13.3884 11.4066 13.292 11.1512 13.1819C9.77441 12.5879 8.87608 11.2028 8.80641 11.1102C8.73858 11.0186 8.24725 10.3659 8.24725 9.69124C8.24725 9.01566 8.60108 8.68382 8.72666 8.54632C8.77278 8.49422 8.82914 8.45219 8.89222 8.42286C8.95531 8.39352 9.02377 8.37751 9.09333 8.37582C9.185 8.37582 9.27575 8.37674 9.35641 8.38041C9.44075 8.38408 9.5535 8.34833 9.66441 8.61599C9.779 8.89099 10.054 9.56566 10.0879 9.63441C10.1218 9.70224 10.1447 9.78291 10.0998 9.87458C10.054 9.96716 10.032 10.0231 9.96233 10.1037C9.8945 10.1844 9.81841 10.2825 9.757 10.3448C9.68825 10.4127 9.61675 10.4869 9.6965 10.6244C9.77716 10.761 10.0522 11.2111 10.4592 11.575C10.9835 12.0425 11.4262 12.1864 11.5628 12.2561C11.7003 12.3239 11.7801 12.3138 11.8607 12.2212C11.9405 12.1287 12.2036 11.8207 12.2952 11.6841C12.3869 11.5466 12.4777 11.5695 12.6042 11.6144C12.7297 11.6612 13.4044 11.9921 13.541 12.0608C13.6767 12.1287 13.7692 12.1635 13.8041 12.2212C13.8371 12.2781 13.8371 12.5522 13.7234 12.873Z" fill="url(#paint0_linear_1048_23255)"/>
<path d="M18.3333 2.75H3.66667C3.42355 2.75 3.19039 2.84658 3.01849 3.01849C2.84658 3.19039 2.75 3.42355 2.75 3.66667V18.3333C2.75 18.5764 2.84658 18.8096 3.01849 18.9815C3.19039 19.1534 3.42355 19.25 3.66667 19.25H18.3333C18.5764 19.25 18.8096 19.1534 18.9815 18.9815C19.1534 18.8096 19.25 18.5764 19.25 18.3333V3.66667C19.25 3.42355 19.1534 3.19039 18.9815 3.01849C18.8096 2.84658 18.5764 2.75 18.3333 2.75ZM11.0367 16.4047H11.0348C10.1182 16.4048 9.21621 16.175 8.41133 15.7364L5.5 16.5L6.27917 13.6547C5.7979 12.8198 5.54479 11.873 5.54526 10.9093C5.54574 9.94565 5.79977 8.99908 6.28186 8.16467C6.76394 7.33026 7.4571 6.6374 8.29172 6.15567C9.12633 5.67394 10.073 5.42031 11.0367 5.42025C11.7586 5.41825 12.4737 5.55959 13.1406 5.83606C13.8074 6.11253 14.4128 6.51864 14.9215 7.03083C15.4326 7.53991 15.8376 8.14531 16.1131 8.81199C16.3887 9.47867 16.5292 10.1934 16.5266 10.9148C16.5244 12.3701 15.9453 13.7652 14.9162 14.7943C13.8871 15.8234 12.492 16.4025 11.0367 16.4047Z" fill="url(#paint1_linear_1048_23255)"/>
<defs>
<linearGradient id="paint0_linear_1048_23255" x1="6.47441" y1="3.56349" x2="18.9653" y2="14.0145" gradientUnits="userSpaceOnUse">
<stop stop-color="#00D3D3"/>
<stop offset="1" stop-color="#005C83"/>
</linearGradient>
<linearGradient id="paint1_linear_1048_23255" x1="2.75" y1="-2.2825" x2="25.325" y2="16.6115" gradientUnits="userSpaceOnUse">
<stop stop-color="#00D3D3"/>
<stop offset="1" stop-color="#005C83"/>
</linearGradient>
</defs>
</svg>
